<svg width="495" height="318" viewBox="0 0 495 318" fill="none" xmlns="http://www.w3.org/2000/svg">
<g clip-path="url(#clip0_8_3)">
<path d="M382.032 190.769V191.421C380.63 189.778 379.199 188.149 377.783 186.52C377.188 185.84 376.593 185.16 375.998 184.48C373.477 181.619 370.941 178.768 368.392 175.925C365.828 173.092 363.264 170.26 360.672 167.441C360.049 166.761 359.426 166.081 358.789 165.401C358.278 164.83 357.724 164.3 357.131 163.815C356.533 163.317 355.846 162.937 355.106 162.696C354.254 162.46 353.356 162.45 352.5 162.668C351.522 162.894 350.587 163.249 349.639 163.546C348.661 163.872 347.698 164.183 346.721 164.495C344.766 165.132 342.826 165.77 340.871 166.407C340.847 166.417 340.822 166.421 340.797 166.421C340.771 166.421 340.746 166.416 340.723 166.406C340.699 166.396 340.678 166.382 340.66 166.364C340.642 166.346 340.628 166.324 340.619 166.301L340.616 166.294C340.605 166.267 340.6 166.238 340.601 166.209C340.602 166.18 340.61 166.152 340.623 166.126C340.637 166.1 340.656 166.078 340.679 166.06C340.702 166.043 340.729 166.031 340.758 166.025C341.239 165.869 341.735 165.713 342.231 165.557C344.199 164.906 346.154 164.268 348.123 163.631C349.1 163.305 350.077 162.994 351.055 162.682C351.961 162.338 352.919 162.146 353.888 162.115C355.47 162.229 356.954 162.926 358.052 164.07C358.661 164.637 359.214 165.231 359.766 165.841C360.417 166.549 361.069 167.257 361.721 167.965C364.341 170.826 366.942 173.697 369.525 176.577C372.117 179.466 374.685 182.361 377.23 185.26C377.414 185.472 377.598 185.685 377.783 185.897C379.213 187.511 380.615 189.141 382.032 190.769Z" fill="white"/>
<path d="M356.911 166.425C356.376 165.735 355.663 165.205 354.849 164.892L354.043 164.92C360.365 174.757 368.647 183.185 378.373 189.678C371.219 181.927 364.065 174.176 356.911 166.425Z" fill="white"/>
<path d="M488.841 268.655L456.754 96.8452C456.205 94.013 454.71 91.4513 452.514 89.5802C450.318 87.7092 447.551 86.6397 444.668 86.5471C444.408 86.5414 444.149 86.5414 443.89 86.5471L422.031 87.3313L419.678 87.4177L408.769 87.8098L406.416 87.8906L399.399 88.1443L257.901 93.2241C257.688 93.2357 257.469 93.2356 257.256 93.2298L225.548 92.5668L213.814 92.3246L213.44 92.3189L204.779 92.1344L129.314 90.566L109.306 90.145L99.4399 89.9433L97.076 89.8913L85.8265 89.6607L83.4682 89.6088L71.9592 89.3724L69.6009 89.3205L56.956 89.0552L54.9725 89.0149L43.6942 88.7785L41.9126 88.7439H41.6531C38.659 88.7561 35.7655 89.8265 33.4843 91.7658C31.2031 93.7052 29.6809 96.3886 29.187 99.3418L0.16669 277.627C-0.12801 279.433 -0.0265484 281.281 0.464022 283.044C0.954593 284.807 1.82253 286.442 3.00775 287.836C4.19298 289.231 5.66714 290.35 7.3281 291.118C8.98906 291.886 10.7971 292.284 12.627 292.284H179.288C181.741 292.291 184.128 293.078 186.103 294.533L189.263 296.874C191.441 298.476 194.072 299.345 196.776 299.353C228.964 290.857 262.806 290.857 294.994 299.353C296.654 299.357 298.298 299.032 299.831 298.397C301.364 297.761 302.756 296.828 303.926 295.651C305.926 293.651 308.596 292.462 311.421 292.313L477.09 283.583C478.887 283.489 480.642 283.012 482.24 282.185C483.837 281.357 485.239 280.198 486.352 278.784C487.464 277.371 488.262 275.736 488.692 273.989C489.121 272.242 489.172 270.423 488.841 268.655Z" fill="#551A8B"/>
<path d="M443.441 241.863C443.228 247.685 440.712 253.185 436.446 257.152C432.18 261.12 426.513 263.232 420.691 263.023C411.071 262.683 399.591 262.513 387.131 262.773C346.441 263.643 295.321 269.243 264.571 289.383C260.706 291.92 256.139 293.172 251.521 292.963C251.181 292.943 250.851 292.923 250.511 292.893C245.723 292.455 241.211 290.456 237.671 287.203C220.731 271.703 181.881 252.933 92.9508 251.613C92.5808 251.613 92.2208 251.593 91.8608 251.573C88.9805 251.392 86.1641 250.644 83.5726 249.374C80.9812 248.104 78.6655 246.335 76.758 244.17C74.8504 242.004 73.3883 239.483 72.4554 236.752C71.5225 234.021 71.1369 231.133 71.3208 228.253L80.0608 89.5428L81.3708 68.7528L83.6708 32.3828C83.9028 28.7201 85.5204 25.283 88.195 22.77C90.8697 20.2569 94.4008 18.8563 98.0708 18.8528H98.1608L151.141 19.1628C173.461 20.1728 191.947 23.0161 206.601 27.6928C211.606 29.245 216.476 31.2049 221.161 33.5529C227.56 36.6552 233.309 40.9484 238.101 46.2029C241.086 49.5595 245.157 51.758 249.601 52.4129C250.29 52.5158 250.984 52.5792 251.681 52.6029C255.779 52.7724 259.823 51.6151 263.211 49.3029C297.821 26.1129 368.351 24.3529 407.301 25.3529C412.748 25.4799 417.953 27.6301 421.901 31.3846C425.85 35.1391 428.26 40.229 428.661 45.6629L430.241 66.3529L431.811 86.9828L440.871 206.213L443.391 239.383C443.452 240.208 443.469 241.036 443.441 241.863Z" fill="#F2F2F2"/>
<path d="M106.131 67.6626C138.058 57.4763 173.677 60.1731 203.924 74.5235C212.554 78.5968 220.704 83.6168 228.225 89.4911C230.353 91.1609 233.38 88.1741 231.23 86.4865C203.449 64.9388 168.543 54.7027 133.525 57.8347C123.837 58.7016 114.273 60.6232 105.002 63.5652C102.406 64.3932 103.516 68.4972 106.131 67.6626Z" fill="#3F3D56"/>
<path d="M281.815 91.1395C311.499 75.5373 347.045 72.135 379.319 80.9915C388.52 83.5103 397.412 87.0459 405.831 91.5327C408.243 92.8196 410.392 89.1528 407.976 87.8636C377.216 71.4503 340.292 67.672 306.701 76.8214C297.331 79.3783 288.267 82.9491 279.67 87.4704C277.249 88.7432 279.394 92.412 281.815 91.1395Z" fill="#3F3D56"/>
<path d="M281.815 119.468C311.499 103.866 347.045 100.463 379.319 109.32C388.52 111.839 397.412 115.374 405.831 119.861C408.243 121.148 410.392 117.481 407.976 116.192C377.216 99.7785 340.292 96.0002 306.701 105.15C297.331 107.707 288.267 111.277 279.67 115.799C277.249 117.071 279.394 120.74 281.815 119.468Z" fill="#3F3D56"/>
<path d="M282.208 231.188C311.892 215.585 347.437 212.183 379.712 221.04C388.913 223.559 397.805 227.094 406.224 231.581C408.636 232.868 410.785 229.201 408.368 227.912C377.609 211.498 340.684 207.72 307.094 216.87C297.724 219.426 288.66 222.997 280.063 227.519C277.642 228.791 279.787 232.46 282.208 231.188Z" fill="#3F3D56"/>
<path d="M409.015 146.276C409.038 145.912 408.95 145.549 408.763 145.234C408.576 144.92 408.299 144.67 407.968 144.515C383.327 131.612 355.387 126.379 327.746 129.489C327.573 129.502 327.413 129.53 327.226 129.544H327.219C327.049 129.559 326.88 129.585 326.713 129.62C310.273 131.512 294.324 136.428 279.671 144.12C279.352 144.31 279.087 144.58 278.904 144.904C278.72 145.227 278.624 145.592 278.624 145.964V198.81C278.629 199.135 278.709 199.455 278.856 199.745C279.003 200.035 279.214 200.288 279.473 200.484C279.732 200.681 280.033 200.816 280.352 200.879C280.671 200.942 281 200.932 281.315 200.849C281.966 200.662 282.618 200.481 283.284 200.308C298.097 196.298 313.304 193.919 328.634 193.214C328.96 193.2 329.286 193.186 329.625 193.173C342.111 192.636 354.62 193.086 367.036 194.518C367.296 194.532 367.555 194.56 367.812 194.601C368.45 194.67 369.102 194.746 369.74 194.83C369.996 194.857 370.239 194.885 370.475 194.927C372.957 195.239 375.419 195.592 377.888 195.974C381.452 196.542 385.016 197.176 388.58 197.874C388.802 197.915 389.031 197.971 389.26 198.013C394.98 199.15 400.673 200.467 406.339 201.923C406.654 202.005 406.984 202.014 407.303 201.949C407.623 201.884 407.923 201.748 408.182 201.55C408.441 201.353 408.652 201.099 408.799 200.808C408.946 200.517 409.024 200.197 409.029 199.871V146.359C409.031 146.331 409.027 146.302 409.015 146.276Z" fill="#3F3D56"/>
<path d="M300.517 146.505L299.944 146.919C300.138 146.774 300.34 146.638 300.547 146.509L300.517 146.505Z" fill="white"/>
<path d="M106.131 95.9909C138.058 85.8046 173.677 88.5014 203.924 102.852C212.554 106.925 220.704 111.945 228.225 117.819C230.353 119.489 233.38 116.502 231.23 114.815C203.449 93.267 168.543 83.0309 133.525 86.1629C123.837 87.0298 114.273 88.9514 105.002 91.8934C102.406 92.7214 103.516 96.8254 106.131 95.9909Z" fill="#3F3D56"/>
<path d="M106.131 124.319C138.058 114.133 173.677 116.83 203.924 131.18C212.554 135.253 220.704 140.273 228.225 146.148C230.353 147.817 233.38 144.831 231.23 143.143C203.449 121.595 168.543 111.359 133.525 114.491C123.837 115.358 114.273 117.28 105.002 120.222C102.406 121.05 103.516 125.154 106.131 124.319Z" fill="#3F3D56"/>
<path d="M106.131 152.647C138.058 142.461 173.677 145.158 203.924 159.508C212.554 163.581 220.704 168.601 228.225 174.476C230.353 176.146 233.38 173.159 231.23 171.471C203.449 149.923 168.543 139.687 133.525 142.819C123.837 143.686 114.273 145.608 105.002 148.55C102.406 149.378 103.516 153.482 106.131 152.647Z" fill="#3F3D56"/>
<path d="M106.131 180.976C138.058 170.789 173.677 173.486 203.924 187.836C212.554 191.91 220.704 196.93 228.225 202.804C230.353 204.474 233.38 201.487 231.23 199.799C203.449 178.252 168.543 168.016 133.525 171.148C123.837 172.014 114.273 173.936 105.002 176.878C102.406 177.706 103.516 181.81 106.131 180.976Z" fill="#3F3D56"/>
<path d="M106.131 209.304C138.058 199.117 173.677 201.814 203.924 216.165C212.554 220.238 220.704 225.258 228.225 231.132C230.353 232.802 233.38 229.815 231.23 228.128C203.449 206.58 168.543 196.344 133.525 199.476C123.837 200.343 114.273 202.264 105.002 205.206C102.406 206.034 103.516 210.138 106.131 209.304Z" fill="#3F3D56"/>
<path d="M221.161 33.5528V101.483C221.161 102.833 218.801 103.963 215.621 104.273C215.594 104.271 215.567 104.275 215.541 104.283C215.011 104.323 214.451 104.353 213.881 104.353C212.128 104.385 210.383 104.1 208.731 103.513C208.581 103.453 208.431 103.383 208.281 103.323C208.141 103.243 207.991 103.173 207.851 103.093C207.061 102.623 206.601 102.073 206.601 101.483V27.6928C211.606 29.2449 216.476 31.2048 221.161 33.5528Z" fill="#605DFF"/>
<path d="M251.679 49.3082H249.599V291.543H251.679V49.3082Z" fill="#E6E6E6"/>
</g>
<defs>
<clipPath id="clip0_8_3">
<rect width="495" height="318" fill="white"/>
</clipPath>
</defs>
</svg>
